<svg width="22" height="24" viewBox="0 0 22 24" fill="none" xmlns="http://www.w3.org/2000/svg">
<path d="M11.0001 24.0001C10.1564 24.0001 9.45325 23.7188 8.89075 23.1563C8.28137 22.5938 8.00012 21.8438 8.00012 21.0001H14.0001C14.0001 21.8438 13.672 22.5938 13.1095 23.1563C12.5001 23.7188 11.797 24.0001 11.0001 24.0001ZM21.0782 16.9688C21.3595 17.2969 21.5001 17.6719 21.5001 18.0469C21.5001 18.4219 21.3595 18.7969 21.0782 19.0782C20.797 19.3594 20.422 19.5001 20.0001 19.5001H2.00012C1.53137 19.5001 1.20325 19.3594 0.921997 19.0782C0.640747 18.7969 0.500122 18.4219 0.500122 18.0469C0.500122 17.6719 0.640747 17.2969 0.921997 16.9688L1.06262 16.7813C1.76575 16.0313 2.28137 15.3282 2.65637 14.5782C3.21887 13.3594 3.50012 11.7188 3.50012 9.75006C3.50012 7.96881 4.06262 6.37506 5.18762 5.01569C6.31262 3.70319 7.71887 2.85944 9.50012 2.48444V1.50006C9.50012 1.12506 9.64075 0.750061 9.922 0.468811C10.2032 0.187561 10.5782 6.10352e-05 11.0001 6.10352e-05C11.3751 6.10352e-05 11.7501 0.187561 12.0314 0.468811C12.3126 0.750061 12.5001 1.12506 12.5001 1.50006V2.48444C14.2345 2.85944 15.6876 3.70319 16.8126 5.01569C17.9376 6.37506 18.5001 7.96881 18.5001 9.75006C18.5001 11.7188 18.7814 13.3594 19.3439 14.5782C19.672 15.3282 20.1876 16.0313 20.9376 16.7813C20.9845 16.8751 21.0314 16.9688 21.0782 16.9688Z" fill="#BDBDBD"/>
</svg>
