<svg width="22" height="24" viewBox="0 0 22 24" fill="none" xmlns="http://www.w3.org/2000/svg">
<path d="M11.0001 24C10.1564 24 9.45325 23.7188 8.89075 23.1562C8.28137 22.5938 8.00012 21.8438 8.00012 21H14.0001C14.0001 21.8438 13.672 22.5938 13.1095 23.1562C12.5001 23.7188 11.797 24 11.0001 24ZM21.0782 16.9688C21.3595 17.2969 21.5001 17.6719 21.5001 18.0469C21.5001 18.4219 21.3595 18.7969 21.0782 19.0781C20.797 19.3594 20.422 19.5 20.0001 19.5H2.00012C1.53137 19.5 1.20325 19.3594 0.921997 19.0781C0.640747 18.7969 0.500122 18.4219 0.500122 18.0469C0.500122 17.6719 0.640747 17.2969 0.921997 16.9688L1.06262 16.7812C1.76575 16.0312 2.28137 15.3281 2.65637 14.5781C3.21887 13.3594 3.50012 11.7188 3.50012 9.75C3.50012 7.96875 4.06262 6.375 5.18762 5.01562C6.31262 3.70312 7.71887 2.85938 9.50012 2.48438V1.5C9.50012 1.125 9.64075 0.75 9.922 0.46875C10.2032 0.1875 10.5782 0 11.0001 0C11.3751 0 11.7501 0.1875 12.0314 0.46875C12.3126 0.75 12.5001 1.125 12.5001 1.5V2.48438C14.2345 2.85938 15.6876 3.70312 16.8126 5.01562C17.9376 6.375 18.5001 7.96875 18.5001 9.75C18.5001 11.7188 18.7814 13.3594 19.3439 14.5781C19.672 15.3281 20.1876 16.0312 20.9376 16.7812C20.9845 16.875 21.0314 16.9688 21.0782 16.9688Z" fill="url(#paint0_linear_64_117)"/>
<defs>
<linearGradient id="paint0_linear_64_117" x1="3.69983" y1="1.26746e-05" x2="21.6673" y2="0.540168" gradientUnits="userSpaceOnUse">
<stop stop-color="#FF6161"/>
<stop offset="1" stop-color="#FF61DC"/>
</linearGradient>
</defs>
</svg>
