<svg width="7" height="15" viewBox="0 0 7 15" fill="none" xmlns="http://www.w3.org/2000/svg">
<path d="M5.25 11.25C5.25 10.7578 5.05859 10.3477 4.73047 10.0195C4.40234 9.69141 3.99219 9.5 3.5 9.5C3.00781 9.5 2.57031 9.69141 2.24219 10.0195C1.91406 10.3477 1.75 10.7578 1.75 11.25C1.75 11.7422 1.91406 12.1797 2.24219 12.5078C2.57031 12.8359 3.00781 13 3.5 13C3.99219 13 4.40234 12.8359 4.73047 12.5078C5.05859 12.1797 5.25 11.7422 5.25 11.25ZM6.125 8.92578V3.375C6.125 2.66406 5.85156 2.03516 5.35938 1.51562C4.83984 1.02344 4.21094 0.75 3.5 0.75C2.76172 0.75 2.13281 1.02344 1.64062 1.51562C1.12109 2.03516 0.875 2.66406 0.875 3.375V8.92578C0.273438 9.58203 0 10.3477 0 11.2227C0 11.8789 0.136719 12.4531 0.464844 13C0.765625 13.5469 1.17578 13.957 1.72266 14.2852C2.26953 14.6133 2.84375 14.75 3.47266 14.75H3.5C4.12891 14.75 4.70312 14.6133 5.25 14.2852C5.79688 13.9844 6.20703 13.5742 6.53516 13.0273C6.83594 12.4805 7 11.9062 7 11.25C7 10.375 6.69922 9.60938 6.125 8.92578ZM5.6875 11.25C5.6875 11.8516 5.46875 12.3711 5.03125 12.8086C4.59375 13.2461 4.10156 13.4375 3.5 13.4375H3.47266C2.87109 13.4375 2.37891 13.2188 1.94141 12.7812C1.50391 12.3438 1.3125 11.8516 1.3125 11.25C1.3125 10.8672 1.39453 10.5391 1.58594 10.2109C1.66797 10.0469 1.83203 9.82812 2.07812 9.55469L2.1875 9.41797V3.375C2.1875 3.01953 2.29688 2.71875 2.57031 2.44531C2.81641 2.19922 3.11719 2.0625 3.5 2.0625C3.85547 2.0625 4.15625 2.19922 4.42969 2.44531C4.67578 2.71875 4.8125 3.01953 4.8125 3.375V9.41797L4.92188 9.55469C5.14062 9.82812 5.30469 10.0469 5.41406 10.2109C5.57812 10.5391 5.6875 10.8672 5.6875 11.25Z" fill="#DFDEDE"/>
</svg>
