<svg width="15" height="15" viewBox="0 0 15 15" fill="none" xmlns="http://www.w3.org/2000/svg">
<path d="M3.97266 4.74219C3.89062 4.30469 3.69922 3.89453 3.37109 3.53906C2.71484 2.91016 2.35938 2.14453 2.25 1.24219C2.22266 1.13281 2.25 1.02344 2.35938 0.914062C2.44141 0.804688 2.55078 0.75 2.6875 0.75H3.15234C3.26172 0.75 3.34375 0.804688 3.42578 0.859375C3.50781 0.941406 3.5625 1.02344 3.58984 1.13281C3.64453 1.70703 3.89062 2.19922 4.30078 2.58203C4.84766 3.15625 5.20312 3.83984 5.3125 4.63281C5.3125 4.76953 5.28516 4.87891 5.20312 4.98828C5.09375 5.09766 4.98438 5.125 4.875 5.125H4.41016C4.30078 5.125 4.19141 5.09766 4.10938 5.01562C4.02734 4.96094 3.97266 4.85156 3.97266 4.74219ZM7.03516 4.74219C6.95312 4.30469 6.76172 3.89453 6.43359 3.53906C5.77734 2.91016 5.42188 2.14453 5.3125 1.24219C5.28516 1.13281 5.3125 1.02344 5.42188 0.914062C5.50391 0.804688 5.61328 0.75 5.75 0.75H6.21484C6.32422 0.75 6.40625 0.804688 6.48828 0.859375C6.57031 0.941406 6.625 1.02344 6.65234 1.13281C6.70703 1.70703 6.95312 2.19922 7.36328 2.58203C7.91016 3.15625 8.26562 3.83984 8.375 4.63281C8.375 4.76953 8.34766 4.87891 8.26562 4.98828C8.15625 5.09766 8.04688 5.125 7.9375 5.125H7.47266C7.36328 5.125 7.25391 5.09766 7.17188 5.01562C7.08984 4.96094 7.03516 4.85156 7.03516 4.74219ZM11.4375 6C11.9844 6 12.4766 6.13672 12.9688 6.41016C13.4336 6.68359 13.8164 7.06641 14.0898 7.53125C14.3633 8.02344 14.5 8.51562 14.5 9.0625C14.5 9.60938 14.3633 10.1289 14.0898 10.5938C13.8164 11.0859 13.4336 11.4414 12.9688 11.7148C12.4766 11.9883 11.9844 12.125 11.4375 12.125H11C11 12.8633 10.7266 13.4922 10.2344 13.9844C9.71484 14.5039 9.08594 14.75 8.375 14.75H3.125C2.38672 14.75 1.75781 14.5039 1.26562 13.9844C0.746094 13.4922 0.5 12.8633 0.5 12.125V6.875C0.5 6.65625 0.582031 6.4375 0.746094 6.27344C0.910156 6.10938 1.12891 6 1.375 6H11.4375ZM11.4375 10.375C11.793 10.375 12.0938 10.2656 12.3672 9.99219C12.6133 9.74609 12.75 9.44531 12.75 9.0625C12.75 8.70703 12.6133 8.40625 12.3672 8.13281C12.0938 7.88672 11.793 7.75 11.4375 7.75H11V10.375H11.4375Z" fill="#DFDEDE"/>
</svg>
