<svg width="15" height="15" viewBox="0 0 15 15" fill="none" xmlns="http://www.w3.org/2000/svg">
<path d="M0.5 11.8242C1.04688 12.207 1.78516 12.5078 2.76953 12.7266C3.67188 12.918 4.65625 13 5.75 13C6.81641 13 7.80078 12.918 8.73047 12.7266C9.6875 12.5078 10.4531 12.207 11 11.8242V13C11 13.3281 10.7539 13.6016 10.2891 13.875C9.79688 14.1484 9.16797 14.3672 8.375 14.5312C7.55469 14.6953 6.67969 14.75 5.75 14.75C4.79297 14.75 3.91797 14.6953 3.125 14.5312C2.30469 14.3672 1.67578 14.1484 1.21094 13.875C0.71875 13.6016 0.5 13.3281 0.5 13V11.8242ZM9.25 4.25C8.29297 4.25 7.41797 4.19531 6.625 4.03125C5.80469 3.86719 5.17578 3.64844 4.71094 3.375C4.21875 3.10156 4 2.82812 4 2.5C4 2.19922 4.21875 1.89844 4.71094 1.625C5.17578 1.35156 5.80469 1.16016 6.625 0.996094C7.41797 0.832031 8.29297 0.75 9.25 0.75C10.1797 0.75 11.0547 0.832031 11.875 0.996094C12.668 1.16016 13.2969 1.35156 13.7891 1.625C14.2539 1.89844 14.5 2.19922 14.5 2.5C14.5 2.82812 14.2539 3.10156 13.7891 3.375C13.2969 3.64844 12.668 3.86719 11.875 4.03125C11.0547 4.19531 10.1797 4.25 9.25 4.25ZM0.5 8.95312C1.04688 9.41797 1.78516 9.77344 2.76953 10.0195C3.69922 10.2656 4.68359 10.375 5.75 10.375C6.78906 10.375 7.80078 10.2656 8.73047 10.0195C9.6875 9.77344 10.4531 9.41797 11 8.95312V10.375C11 10.7031 10.7539 10.9766 10.2891 11.25C9.79688 11.5234 9.16797 11.7422 8.375 11.9062C7.55469 12.0703 6.67969 12.125 5.75 12.125C4.79297 12.125 3.91797 12.0703 3.125 11.9062C2.30469 11.7422 1.67578 11.5234 1.21094 11.25C0.71875 10.9766 0.5 10.7031 0.5 10.375V8.95312ZM11.875 9.25391V7.53125C13.0234 7.33984 13.8984 7.01172 14.5 6.57422V7.75C14.5 8.07812 14.2539 8.35156 13.7891 8.625C13.2969 8.89844 12.668 9.11719 11.875 9.25391ZM5.75 5.125C6.67969 5.125 7.55469 5.23438 8.375 5.42578C9.16797 5.64453 9.79688 5.89062 10.2891 6.21875C10.7539 6.54688 11 6.92969 11 7.3125C11 7.72266 10.7539 8.07812 10.2891 8.40625C9.79688 8.73438 9.16797 9.00781 8.375 9.19922C7.55469 9.41797 6.67969 9.5 5.75 9.5C4.79297 9.5 3.91797 9.41797 3.125 9.19922C2.30469 9.00781 1.67578 8.73438 1.21094 8.40625C0.71875 8.07812 0.5 7.72266 0.5 7.3125C0.5 6.92969 0.71875 6.54688 1.21094 6.21875C1.67578 5.89062 2.30469 5.64453 3.125 5.42578C3.91797 5.23438 4.79297 5.125 5.75 5.125ZM11.7383 6.65625C11.5195 6.05469 10.9727 5.53516 10.0977 5.09766C11.0273 5.07031 11.8477 4.96094 12.5859 4.74219C13.3789 4.55078 14.0078 4.27734 14.5 3.94922V5.125C14.5 5.45312 14.2266 5.75391 13.7344 6.02734C13.2422 6.30078 12.5586 6.51953 11.7383 6.65625Z" fill="#DFDEDE"/>
</svg>
