<svg width="24" height="20" viewBox="0 0 24 20" fill="none" xmlns="http://www.w3.org/2000/svg">
<path d="M20.6797 1.5C21.7109 2.40234 22.3984 3.47656 22.7852 4.67969C23.0859 5.79688 23.0859 6.95703 22.7852 8.11719C22.4414 9.27734 21.9258 10.2656 21.1523 11.0391L13.6328 18.6875C13.1602 19.1602 12.6016 19.375 12 19.375C11.3555 19.375 10.7969 19.1602 10.3672 18.6875L2.84766 11.0391C2.07422 10.2656 1.51562 9.27734 1.21484 8.11719C0.871094 6.95703 0.914062 5.79688 1.25781 4.67969C1.60156 3.47656 2.28906 2.40234 3.32031 1.5C4.09375 0.8125 5.03906 0.382812 6.11328 0.210938C7.14453 0.0390625 8.21875 0.125 9.25 0.46875C10.2812 0.8125 11.2266 1.37109 12 2.14453C12.7734 1.37109 13.6758 0.8125 14.707 0.46875C15.7383 0.125 16.8125 0.0390625 17.8867 0.210938C18.918 0.382812 19.8633 0.8125 20.6797 1.5ZM19.6914 9.57812C20.207 9.0625 20.5508 8.375 20.7656 7.60156C20.9805 6.82812 20.9805 6.01172 20.7656 5.23828C20.5078 4.42188 20.0352 3.69141 19.3477 3.08984C18.4883 2.40234 17.5 2.10156 16.3828 2.1875C15.2656 2.27344 14.2773 2.74609 13.5039 3.5625L12 5.06641L10.4961 3.5625C9.67969 2.74609 8.69141 2.27344 7.57422 2.1875C6.45703 2.10156 5.46875 2.40234 4.65234 3.08984C3.92188 3.69141 3.44922 4.42188 3.23438 5.23828C2.97656 6.01172 2.97656 6.82812 3.19141 7.60156C3.40625 8.375 3.79297 9.0625 4.30859 9.57812L11.8711 17.2266C11.957 17.3555 12.043 17.3555 12.1289 17.2266L19.6914 9.57812Z" fill="white"/>
</svg>
