<svg width="19" height="18" viewBox="0 0 19 18" fill="none" xmlns="http://www.w3.org/2000/svg">
<path d="M3.3125 3.09766C5.02344 1.38672 7.08594 0.53125 9.5 0.53125C11.9141 0.53125 13.9648 1.38672 15.6523 3.09766C17.3633 4.78516 18.2188 6.83594 18.2188 9.25C18.2188 11.6641 17.3633 13.7266 15.6523 15.4375C13.9648 17.125 11.9141 17.9688 9.5 17.9688C7.08594 17.9688 5.02344 17.125 3.3125 15.4375C1.625 13.7266 0.78125 11.6641 0.78125 9.25C0.78125 6.83594 1.625 4.78516 3.3125 3.09766ZM15.6172 4.75C15.1484 4.14063 14.6094 3.60156 14 3.13281L11.7852 5.38281C12.4414 5.78125 12.9688 6.30859 13.3672 6.96484L15.6172 4.75ZM7.10938 11.6406C7.76562 12.2969 8.5625 12.625 9.5 12.625C10.4375 12.625 11.2344 12.2969 11.8906 11.6406C12.5469 10.9844 12.875 10.1875 12.875 9.25C12.875 8.3125 12.5469 7.51562 11.8906 6.85938C11.2344 6.20312 10.4375 5.875 9.5 5.875C8.5625 5.875 7.76562 6.20312 7.10938 6.85938C6.45312 7.51562 6.125 8.3125 6.125 9.25C6.125 10.1875 6.45312 10.9844 7.10938 11.6406ZM5 3.13281C4.39062 3.60156 3.85156 4.14063 3.38281 4.75L5.63281 6.96484C6.03125 6.30859 6.55859 5.78125 7.21484 5.38281L5 3.13281ZM3.38281 13.75C3.85156 14.3594 4.39062 14.8984 5 15.3672L7.21484 13.1172C6.55859 12.7188 6.03125 12.1914 5.63281 11.5352L3.38281 13.75ZM14 15.3672C14.6094 14.8984 15.1484 14.3594 15.6172 13.75L13.3672 11.5352C12.9688 12.1914 12.4414 12.7188 11.7852 13.1172L14 15.3672Z" fill="url(#paint0_linear_0_555)"/>
<defs>
<linearGradient id="paint0_linear_0_555" x1="2.1997" y1="1.00001" x2="20.151" y2="1.7619" gradientUnits="userSpaceOnUse">
<stop stop-color="#FF6161"/>
<stop offset="1" stop-color="#FF61DC"/>
</linearGradient>
</defs>
</svg>
