<svg width="27" height="22" viewBox="0 0 27 22" fill="none" xmlns="http://www.w3.org/2000/svg">
<path d="M22.8752 13.6719C22.8752 13.4844 22.7815 13.3438 22.6877 13.2031L13.8752 5.98438C13.7346 5.89062 13.594 5.84375 13.5002 5.84375C13.3596 5.84375 13.219 5.89062 13.1252 5.98438L4.31274 13.2031C4.17212 13.3438 4.12524 13.4844 4.12524 13.6719V20.375C4.12524 20.7031 4.21899 20.9844 4.45337 21.1719C4.64087 21.4062 4.92212 21.5 5.25024 21.5H10.6877C10.8284 21.5 10.969 21.4531 11.0627 21.3594C11.1565 21.2656 11.2502 21.125 11.2502 20.9375V15.6875C11.2502 15.5469 11.2971 15.4062 11.3909 15.3125C11.4846 15.2188 11.6252 15.125 11.8127 15.125H15.1877C15.3284 15.125 15.469 15.2188 15.5627 15.3125C15.6565 15.4062 15.7502 15.5469 15.7502 15.6875V20.9375C15.7502 21.125 15.7971 21.2656 15.8909 21.3594C15.9846 21.4531 16.1252 21.5 16.3127 21.5H21.7502C22.0315 21.5 22.3127 21.4062 22.5471 21.1719C22.7346 20.9844 22.8752 20.7031 22.8752 20.375V13.6719ZM26.8127 10.8125C26.9065 10.9062 26.9534 11.0469 26.9534 11.1875C26.9534 11.375 26.9534 11.5156 26.8596 11.6094L25.6877 13.0625C25.594 13.2031 25.4534 13.25 25.3127 13.25C25.1252 13.25 24.9846 13.2031 24.8909 13.1094L13.8752 4.0625C13.7346 3.96875 13.594 3.92188 13.5002 3.92188C13.3596 3.92188 13.219 3.96875 13.1252 4.0625L2.10962 13.1094C1.96899 13.2031 1.82837 13.25 1.68774 13.25C1.50024 13.25 1.40649 13.2031 1.31274 13.0625L0.140869 11.6094C0.0471191 11.5156 0.000244141 11.375 0.000244141 11.1875C0.000244141 11.0469 0.0939941 10.9062 0.187744 10.8125L12.094 1.01562C12.469 0.6875 12.9377 0.5 13.5002 0.5C14.0159 0.5 14.4846 0.6875 14.9534 1.01562L19.1252 4.48438V1.0625C19.1252 0.921875 19.1721 0.78125 19.2659 0.6875C19.3596 0.59375 19.5002 0.5 19.6877 0.5H22.3127C22.4534 0.5 22.594 0.59375 22.6877 0.6875C22.7815 0.78125 22.8752 0.921875 22.8752 1.0625V7.57812L26.8127 10.8125Z" fill="#BDBDBD"/>
</svg>
