<svg width="68" height="68" viewBox="0 0 68 68" fill="none" xmlns="http://www.w3.org/2000/svg">
<g filter="url(#filter0_dd_94_230)">
<rect x="9" y="9" width="50" height="50" rx="10" fill="#E3E6EC"/>
</g>
<g filter="url(#filter1_d_94_230)">
<path d="M42.8752 36.6719C42.8752 36.4844 42.7815 36.3438 42.6877 36.2032L33.8752 28.9844C33.7346 28.8907 33.594 28.8438 33.5002 28.8438C33.3596 28.8438 33.219 28.8907 33.1252 28.9844L24.3127 36.2032C24.1721 36.3438 24.1252 36.4844 24.1252 36.6719V43.3751C24.1252 43.7032 24.219 43.9844 24.4534 44.1719C24.6409 44.4063 24.9221 44.5001 25.2502 44.5001H30.6877C30.8284 44.5001 30.969 44.4532 31.0627 44.3594C31.1565 44.2657 31.2502 44.1251 31.2502 43.9376V38.6876C31.2502 38.5469 31.2971 38.4063 31.3909 38.3126C31.4846 38.2188 31.6252 38.1251 31.8127 38.1251H35.1877C35.3284 38.1251 35.469 38.2188 35.5627 38.3126C35.6565 38.4063 35.7502 38.5469 35.7502 38.6876V43.9376C35.7502 44.1251 35.7971 44.2657 35.8909 44.3594C35.9846 44.4532 36.1252 44.5001 36.3127 44.5001H41.7502C42.0315 44.5001 42.3127 44.4063 42.5471 44.1719C42.7346 43.9844 42.8752 43.7032 42.8752 43.3751V36.6719ZM46.8127 33.8126C46.9065 33.9063 46.9534 34.0469 46.9534 34.1876C46.9534 34.3751 46.9534 34.5157 46.8596 34.6094L45.6877 36.0626C45.594 36.2032 45.4534 36.2501 45.3127 36.2501C45.1252 36.2501 44.9846 36.2032 44.8909 36.1094L33.8752 27.0626C33.7346 26.9688 33.594 26.9219 33.5002 26.9219C33.3596 26.9219 33.219 26.9688 33.1252 27.0626L22.1096 36.1094C21.969 36.2032 21.8284 36.2501 21.6877 36.2501C21.5002 36.2501 21.4065 36.2032 21.3127 36.0626L20.1409 34.6094C20.0471 34.5157 20.0002 34.3751 20.0002 34.1876C20.0002 34.0469 20.094 33.9063 20.1877 33.8126L32.094 24.0157C32.469 23.6876 32.9377 23.5001 33.5002 23.5001C34.0159 23.5001 34.4846 23.6876 34.9534 24.0157L39.1252 27.4844V24.0626C39.1252 23.9219 39.1721 23.7813 39.2659 23.6876C39.3596 23.5938 39.5002 23.5001 39.6877 23.5001H42.3127C42.4534 23.5001 42.594 23.5938 42.6877 23.6876C42.7815 23.7813 42.8752 23.9219 42.8752 24.0626V30.5782L46.8127 33.8126Z" fill="url(#paint0_linear_94_230)"/>
</g>
<defs>
<filter id="filter0_dd_94_230" x="0" y="0" width="68" height="68" filterUnits="userSpaceOnUse" color-interpolation-filters="sRGB">
<feFlood flood-opacity="0" result="BackgroundImageFix"/>
<feColorMatrix in="SourceAlpha" type="matrix" values="0 0 0 0 0 0 0 0 0 0 0 0 0 0 0 0 0 0 127 0" result="hardAlpha"/>
<feOffset dx="-4" dy="-4"/>
<feGaussianBlur stdDeviation="2.5"/>
<feColorMatrix type="matrix" values="0 0 0 0 1 0 0 0 0 1 0 0 0 0 1 0 0 0 0.5 0"/>
<feBlend mode="normal" in2="BackgroundImageFix" result="effect1_dropShadow_94_230"/>
<feColorMatrix in="SourceAlpha" type="matrix" values="0 0 0 0 0 0 0 0 0 0 0 0 0 0 0 0 0 0 127 0" result="hardAlpha"/>
<feOffset dx="4" dy="4"/>
<feGaussianBlur stdDeviation="2.5"/>
<feColorMatrix type="matrix" values="0 0 0 0 0.819608 0 0 0 0 0.85098 0 0 0 0 0.901961 0 0 0 1 0"/>
<feBlend mode="normal" in2="effect1_dropShadow_94_230" result="effect2_dropShadow_94_230"/>
<feBlend mode="normal" in="SourceGraphic" in2="effect2_dropShadow_94_230" result="shape"/>
</filter>
<filter id="filter1_d_94_230" x="5.00024" y="8.50006" width="56.9531" height="51" filterUnits="userSpaceOnUse" color-interpolation-filters="sRGB">
<feFlood flood-opacity="0" result="BackgroundImageFix"/>
<feColorMatrix in="SourceAlpha" type="matrix" values="0 0 0 0 0 0 0 0 0 0 0 0 0 0 0 0 0 0 127 0" result="hardAlpha"/>
<feOffset/>
<feGaussianBlur stdDeviation="7.5"/>
<feColorMatrix type="matrix" values="0 0 0 0 1 0 0 0 0 1 0 0 0 0 1 0 0 0 1 0"/>
<feBlend mode="normal" in2="BackgroundImageFix" result="effect1_dropShadow_94_230"/>
<feBlend mode="normal" in="SourceGraphic" in2="effect1_dropShadow_94_230" result="shape"/>
</filter>
<linearGradient id="paint0_linear_94_230" x1="24.107" y1="23.5001" x2="47.1439" y2="24.5159" gradientUnits="userSpaceOnUse">
<stop stop-color="#FF6161"/>
<stop offset="1" stop-color="#FF61DC"/>
</linearGradient>
</defs>
</svg>
