<svg width="15" height="19" viewBox="0 0 15 19" fill="none" xmlns="http://www.w3.org/2000/svg">
<path d="M6.79688 17.8984C6.23438 17.0781 5.58984 16.1523 4.86328 15.1211C4.16016 14.0898 3.65625 13.3633 3.35156 12.9414C3.04688 12.5195 2.69531 12.0039 2.29688 11.3945C1.89844 10.7617 1.62891 10.3164 1.48828 10.0586C1.37109 9.80078 1.23047 9.47266 1.06641 9.07422C0.925781 8.67578 0.832031 8.33594 0.785156 8.05469C0.761719 7.75 0.75 7.39844 0.75 7C0.75 5.125 1.40625 3.53125 2.71875 2.21875C4.03125 0.90625 5.625 0.25 7.5 0.25C9.375 0.25 10.9688 0.90625 12.2812 2.21875C13.5938 3.53125 14.25 5.125 14.25 7C14.25 7.39844 14.2266 7.75 14.1797 8.05469C14.1562 8.33594 14.0625 8.67578 13.8984 9.07422C13.7578 9.47266 13.6172 9.80078 13.4766 10.0586C13.3594 10.3164 13.1016 10.7617 12.7031 11.3945C12.3047 12.0039 11.9531 12.5195 11.6484 12.9414C11.3438 13.3633 10.8281 14.0898 10.1016 15.1211C9.39844 16.1523 8.76562 17.0781 8.20312 17.8984C8.03906 18.1328 7.80469 18.25 7.5 18.25C7.19531 18.25 6.96094 18.1328 6.79688 17.8984ZM5.49609 9.00391C6.05859 9.54297 6.72656 9.8125 7.5 9.8125C8.27344 9.8125 8.92969 9.54297 9.46875 9.00391C10.0312 8.44141 10.3125 7.77344 10.3125 7C10.3125 6.22656 10.0312 5.57031 9.46875 5.03125C8.92969 4.46875 8.27344 4.1875 7.5 4.1875C6.72656 4.1875 6.05859 4.46875 5.49609 5.03125C4.95703 5.57031 4.6875 6.22656 4.6875 7C4.6875 7.77344 4.95703 8.44141 5.49609 9.00391Z" fill="url(#paint0_linear_40_774)"/>
<defs>
<linearGradient id="paint0_linear_40_774" x1="2.2855" y1="-0.999989" x2="15.1233" y2="-0.684935" gradientUnits="userSpaceOnUse">
<stop stop-color="#FF6161"/>
<stop offset="1" stop-color="#FF61DC"/>
</linearGradient>
</defs>
</svg>
