<svg width="21" height="17" viewBox="0 0 21 17" fill="none" xmlns="http://www.w3.org/2000/svg">
<path d="M0.375 14.4375V8.25H20.625V14.4375C20.625 14.9062 20.4609 15.3047 20.1328 15.6328C19.8047 15.9609 19.4062 16.125 18.9375 16.125H2.0625C1.59375 16.125 1.19531 15.9609 0.867188 15.6328C0.539062 15.3047 0.375 14.9062 0.375 14.4375ZM7.125 12.0469V13.4531C7.125 13.7344 7.26562 13.875 7.54688 13.875H12.3281C12.6094 13.875 12.75 13.7344 12.75 13.4531V12.0469C12.75 11.7656 12.6094 11.625 12.3281 11.625H7.54688C7.26562 11.625 7.125 11.7656 7.125 12.0469ZM2.625 12.0469V13.4531C2.625 13.7344 2.76562 13.875 3.04688 13.875H5.57812C5.85938 13.875 6 13.7344 6 13.4531V12.0469C6 11.7656 5.85938 11.625 5.57812 11.625H3.04688C2.76562 11.625 2.625 11.7656 2.625 12.0469ZM20.625 2.0625V3.75H0.375V2.0625C0.375 1.59375 0.539062 1.19531 0.867188 0.867188C1.19531 0.539063 1.59375 0.375 2.0625 0.375H18.9375C19.4062 0.375 19.8047 0.539063 20.1328 0.867188C20.4609 1.19531 20.625 1.59375 20.625 2.0625Z" fill="url(#paint0_linear_0_556)"/>
<defs>
<linearGradient id="paint0_linear_0_556" x1="3.1997" y1="8.97782e-06" x2="21.151" y2="0.761898" gradientUnits="userSpaceOnUse">
<stop stop-color="#FF6161"/>
<stop offset="1" stop-color="#FF61DC"/>
</linearGradient>
</defs>
</svg>
