<svg width="21" height="19" viewBox="0 0 21 19" fill="none" xmlns="http://www.w3.org/2000/svg">
<path d="M20.0977 8.125C20.2617 8.125 20.3906 8.18359 20.4844 8.30078C20.6016 8.39453 20.6602 8.52344 20.6602 8.6875V13.1875C20.6602 13.3516 20.6016 13.4922 20.4844 13.6094C20.3906 13.7031 20.2617 13.75 20.0977 13.75H18.375C18.0703 14.1719 17.707 14.5352 17.2852 14.8398V17.6875C17.2852 17.8516 17.2266 17.9805 17.1094 18.0742C17.0156 18.1914 16.8867 18.25 16.7227 18.25H14.4727C14.3086 18.25 14.168 18.1914 14.0508 18.0742C13.957 17.9805 13.9102 17.8516 13.9102 17.6875V16H9.41016V17.6875C9.41016 17.8516 9.35156 17.9805 9.23438 18.0742C9.14062 18.1914 9.01172 18.25 8.84766 18.25H6.59766C6.43359 18.25 6.29297 18.1914 6.17578 18.0742C6.08203 17.9805 6.03516 17.8516 6.03516 17.6875V14.8398C5.58984 14.5117 5.19141 14.125 4.83984 13.6797C4.51172 13.2109 4.25391 12.6953 4.06641 12.1328C3.87891 11.5703 3.78516 10.9844 3.78516 10.375H2.37891C1.79297 10.375 1.30078 10.1523 0.902344 9.70703C0.503906 9.26172 0.339844 8.74609 0.410156 8.16016C0.457031 7.83203 0.574219 7.53906 0.761719 7.28125C0.972656 7 1.21875 6.78906 1.5 6.64844C1.80469 6.50781 2.12109 6.4375 2.44922 6.4375C2.58984 6.4375 2.66016 6.50781 2.66016 6.64844V7.35156C2.66016 7.49219 2.58984 7.5625 2.44922 7.5625H2.41406C2.27344 7.5625 2.14453 7.59766 2.02734 7.66797C1.91016 7.71484 1.80469 7.79688 1.71094 7.91406C1.64062 8.00781 1.58203 8.11328 1.53516 8.23047C1.48828 8.51172 1.54688 8.75781 1.71094 8.96875C1.89844 9.15625 2.12109 9.25 2.37891 9.25H3.89062C4.14844 7.96094 4.79297 6.89453 5.82422 6.05078C6.85547 5.18359 8.05078 4.75 9.41016 4.75H13.9102C14.0742 4.75 14.3438 4.77344 14.7188 4.82031C15.3984 4.02344 16.2539 3.625 17.2852 3.625H18.4102L17.7422 6.29688C18.3047 6.8125 18.7383 7.42188 19.043 8.125H20.0977ZM15.1758 10.2344C15.293 10.3281 15.4336 10.375 15.5977 10.375C15.7617 10.375 15.8906 10.3281 15.9844 10.2344C16.1016 10.1172 16.1602 9.97656 16.1602 9.8125C16.1602 9.64844 16.1016 9.51953 15.9844 9.42578C15.8906 9.30859 15.7617 9.25 15.5977 9.25C15.4336 9.25 15.293 9.30859 15.1758 9.42578C15.082 9.51953 15.0352 9.64844 15.0352 9.8125C15.0352 9.97656 15.082 10.1172 15.1758 10.2344ZM9.41016 3.625C8.87109 3.625 8.32031 3.69531 7.75781 3.83594C7.75781 3.8125 7.74609 3.77734 7.72266 3.73047C7.72266 3.68359 7.72266 3.64844 7.72266 3.625C7.72266 2.6875 8.05078 1.89063 8.70703 1.23438C9.36328 0.578125 10.1602 0.25 11.0977 0.25C12.0352 0.25 12.832 0.578125 13.4883 1.23438C14.1445 1.89063 14.4727 2.6875 14.4727 3.625C14.4727 3.64844 14.4727 3.66016 14.4727 3.66016C14.2148 3.63672 14.0273 3.625 13.9102 3.625H9.41016Z" fill="url(#paint0_linear_0_557)"/>
<defs>
<linearGradient id="paint0_linear_0_557" x1="3.1997" y1="1.00001" x2="21.151" y2="1.7619" gradientUnits="userSpaceOnUse">
<stop stop-color="#FF6161"/>
<stop offset="1" stop-color="#FF61DC"/>
</linearGradient>
</defs>
</svg>
