<svg width="24" height="24" viewBox="0 0 24 24" fill="none" xmlns="http://www.w3.org/2000/svg">
<path d="M23.672 20.7656C23.8595 21 24.0001 21.2812 24.0001 21.5625C24.0001 21.8906 23.8595 22.1719 23.672 22.3594L22.3595 23.6719C22.1251 23.9062 21.8439 24 21.5626 24C21.2345 24 20.9532 23.9062 20.7657 23.6719L16.0782 18.9844C15.8439 18.7969 15.7501 18.5156 15.7501 18.1875V17.4375C13.9689 18.8438 12.0001 19.5 9.75012 19.5C7.96887 19.5 6.32825 19.0781 4.82825 18.1875C3.32825 17.3438 2.15637 16.1719 1.31262 14.6719C0.421997 13.1719 0.00012207 11.5312 0.00012207 9.75C0.00012207 7.96875 0.421997 6.375 1.31262 4.875C2.15637 3.375 3.32825 2.20312 4.82825 1.3125C6.32825 0.46875 7.96887 0 9.75012 0C11.5314 0 13.1251 0.46875 14.6251 1.3125C16.1251 2.20312 17.297 3.375 18.1876 4.875C19.0314 6.375 19.5001 7.96875 19.5001 9.75C19.5001 12 18.797 14.0156 17.4376 15.75H18.1876C18.4689 15.75 18.7501 15.8906 18.9845 16.0781L23.672 20.7656ZM9.75012 15.75C10.8282 15.75 11.8126 15.5156 12.7501 14.9531C13.6876 14.4375 14.3907 13.7344 14.9532 12.7969C15.4689 11.8594 15.7501 10.875 15.7501 9.75C15.7501 8.67188 15.4689 7.6875 14.9532 6.75C14.3907 5.8125 13.6876 5.10938 12.7501 4.54688C11.8126 4.03125 10.8282 3.75 9.75012 3.75C8.62512 3.75 7.64075 4.03125 6.70325 4.54688C5.76575 5.10938 5.06262 5.8125 4.547 6.75C3.9845 7.6875 3.75012 8.67188 3.75012 9.75C3.75012 10.875 3.9845 11.8594 4.547 12.7969C5.06262 13.7344 5.76575 14.4375 6.70325 14.9531C7.64075 15.5156 8.62512 15.75 9.75012 15.75Z" fill="url(#paint0_linear_113_1233)"/>
<defs>
<linearGradient id="paint0_linear_113_1233" x1="3.65693" y1="1.26746e-05" x2="24.1855" y2="0.705326" gradientUnits="userSpaceOnUse">
<stop stop-color="#FF6161"/>
<stop offset="1" stop-color="#FF61DC"/>
</linearGradient>
</defs>
</svg>
