<svg width="17" height="19" viewBox="0 0 17 19" fill="none" xmlns="http://www.w3.org/2000/svg">
<path d="M16.6211 11.3594C16.832 11.4531 16.9023 11.6172 16.832 11.8516C16.4336 13.0938 15.7891 14.1953 14.8984 15.1562C14.7578 15.3203 14.5938 15.3555 14.4062 15.2617L12.8945 14.3828C12.2617 14.9219 11.5469 15.332 10.75 15.6133V17.3359C10.75 17.5703 10.6445 17.7109 10.4336 17.7578C9.14453 18.0391 7.86719 18.0391 6.60156 17.7578C6.36719 17.7109 6.25 17.5703 6.25 17.3359V15.6133C5.45312 15.332 4.73828 14.9219 4.10547 14.3828L2.62891 15.2617C2.41797 15.3555 2.24219 15.3203 2.10156 15.1562C1.21094 14.1953 0.566406 13.0938 0.167969 11.8516C0.0976562 11.6406 0.167969 11.4766 0.378906 11.3594L1.85547 10.4805C1.78516 10.082 1.75 9.67188 1.75 9.25C1.75 8.82812 1.78516 8.41797 1.85547 8.01953L0.378906 7.14062C0.167969 7.04688 0.0976562 6.88281 0.167969 6.64844C0.566406 5.40625 1.21094 4.30469 2.10156 3.34375C2.24219 3.17969 2.41797 3.15625 2.62891 3.27344L4.10547 4.11719C4.73828 3.57813 5.45312 3.16797 6.25 2.88672V1.16406C6.25 0.929687 6.35547 0.789062 6.56641 0.742188C7.85547 0.460938 9.14453 0.460938 10.4336 0.742188C10.6445 0.789062 10.75 0.929687 10.75 1.16406V2.88672C11.5469 3.16797 12.2617 3.57813 12.8945 4.11719L14.3711 3.23828C14.582 3.14453 14.7578 3.17969 14.8984 3.34375C15.7891 4.30469 16.4336 5.40625 16.832 6.64844C16.9023 6.88281 16.832 7.04688 16.6211 7.14062L15.1445 8.01953C15.2852 8.83984 15.2852 9.66016 15.1445 10.4805L16.6211 11.3594ZM6.49609 11.2539C7.05859 11.793 7.72656 12.0625 8.5 12.0625C9.27344 12.0625 9.92969 11.793 10.4688 11.2539C11.0312 10.6914 11.3125 10.0234 11.3125 9.25C11.3125 8.47656 11.0312 7.82031 10.4688 7.28125C9.92969 6.71875 9.27344 6.4375 8.5 6.4375C7.72656 6.4375 7.05859 6.71875 6.49609 7.28125C5.95703 7.82031 5.6875 8.47656 5.6875 9.25C5.6875 10.0234 5.95703 10.6914 6.49609 11.2539Z" fill="url(#paint0_linear_0_558)"/>
<defs>
<linearGradient id="paint0_linear_0_558" x1="1.1997" y1="1.00001" x2="19.151" y2="1.7619" gradientUnits="userSpaceOnUse">
<stop stop-color="#FF6161"/>
<stop offset="1" stop-color="#FF61DC"/>
</linearGradient>
</defs>
</svg>
