<svg width="21" height="21" viewBox="0 0 21 21" fill="none" xmlns="http://www.w3.org/2000/svg">
<path d="M10.5 0.8125C12.2188 0.8125 13.8594 1.28125 15.3438 2.14062C16.8281 3 18 4.17188 18.8594 5.65625C19.7188 7.14062 20.1875 8.78125 20.1875 10.5C20.1875 12.2578 19.7188 13.8594 18.8594 15.3438C18 16.8281 16.8281 18.0391 15.3438 18.8984C13.8594 19.7578 12.2188 20.1875 10.5 20.1875C8.74219 20.1875 7.14062 19.7578 5.65625 18.8984C4.17188 18.0391 2.96094 16.8281 2.10156 15.3438C1.24219 13.8594 0.8125 12.2578 0.8125 10.5C0.8125 8.78125 1.24219 7.14062 2.10156 5.65625C2.96094 4.17188 4.17188 3 5.65625 2.14062C7.14062 1.28125 8.74219 0.8125 10.5 0.8125ZM10.5 5.10938C10.0312 5.10938 9.64062 5.30469 9.32812 5.61719C9.01562 5.92969 8.85938 6.32031 8.85938 6.75C8.85938 7.21875 9.01562 7.60938 9.32812 7.92188C9.64062 8.23438 10.0312 8.39062 10.5 8.39062C10.9297 8.39062 11.3203 8.23438 11.6328 7.92188C11.9453 7.60938 12.1406 7.21875 12.1406 6.75C12.1406 6.32031 11.9453 5.92969 11.6328 5.61719C11.3203 5.30469 10.9297 5.10938 10.5 5.10938ZM12.6875 15.0312V14.0938C12.6875 13.9766 12.6094 13.8594 12.5312 13.7812C12.4531 13.7031 12.3359 13.625 12.2188 13.625H11.75V9.71875C11.75 9.60156 11.6719 9.48438 11.5938 9.40625C11.5156 9.32812 11.3984 9.25 11.2812 9.25H8.78125C8.625 9.25 8.50781 9.32812 8.42969 9.40625C8.35156 9.48438 8.3125 9.60156 8.3125 9.71875V10.6562C8.3125 10.8125 8.35156 10.9297 8.42969 11.0078C8.50781 11.0859 8.625 11.125 8.78125 11.125H9.25V13.625H8.78125C8.625 13.625 8.50781 13.7031 8.42969 13.7812C8.35156 13.8594 8.3125 13.9766 8.3125 14.0938V15.0312C8.3125 15.1875 8.35156 15.3047 8.42969 15.3828C8.50781 15.4609 8.625 15.5 8.78125 15.5H12.2188C12.3359 15.5 12.4531 15.4609 12.5312 15.3828C12.6094 15.3047 12.6875 15.1875 12.6875 15.0312Z" fill="url(#paint0_linear_185_917)"/>
<defs>
<linearGradient id="paint0_linear_185_917" x1="3.76461" y1="0.81251" x2="20.3371" y2="1.3819" gradientUnits="userSpaceOnUse">
<stop stop-color="#FF6161"/>
<stop offset="1" stop-color="#FF61DC"/>
</linearGradient>
</defs>
</svg>
