<svg width="22" height="24" viewBox="0 0 22 24" fill="none" xmlns="http://www.w3.org/2000/svg">
<path d="M11.0001 12C9.87512 12 8.89075 11.7656 7.95325 11.2031C7.01575 10.6875 6.31262 9.98438 5.797 9.04688C5.2345 8.10938 5.00012 7.125 5.00012 6C5.00012 4.92188 5.2345 3.9375 5.797 3C6.31262 2.0625 7.01575 1.35938 7.95325 0.796875C8.89075 0.28125 9.87512 0 11.0001 0C12.0782 0 13.0626 0.28125 14.0001 0.796875C14.9376 1.35938 15.6407 2.0625 16.2032 3C16.7189 3.9375 17.0001 4.92188 17.0001 6C17.0001 7.125 16.7189 8.10938 16.2032 9.04688C15.6407 9.98438 14.9376 10.6875 14.0001 11.2031C13.0626 11.7656 12.0782 12 11.0001 12ZM15.2189 13.5C16.3439 13.5 17.3751 13.7812 18.3595 14.3438C19.297 14.9062 20.0939 15.7031 20.6564 16.6406C21.2189 17.625 21.5001 18.6562 21.5001 19.7812V21.75C21.5001 22.4062 21.2657 22.9219 20.8439 23.3438C20.3751 23.8125 19.8595 24 19.2501 24H2.75012C2.09387 24 1.57825 23.8125 1.15637 23.3438C0.687622 22.9219 0.500122 22.4062 0.500122 21.75V19.7812C0.500122 18.6562 0.781372 17.625 1.34387 16.6406C1.90637 15.7031 2.65637 14.9062 3.64075 14.3438C4.57825 13.7812 5.65637 13.5 6.78137 13.5H7.57825C8.65637 14.0156 9.78137 14.25 11.0001 14.25C12.172 14.25 13.297 14.0156 14.422 13.5H15.2189Z" fill="url(#paint0_linear_113_1300)"/>
<defs>
<linearGradient id="paint0_linear_113_1300" x1="3.69983" y1="1.26746e-05" x2="21.6673" y2="0.540168" gradientUnits="userSpaceOnUse">
<stop stop-color="#FF6161"/>
<stop offset="1" stop-color="#FF61DC"/>
</linearGradient>
</defs>
</svg>
