<svg width="68" height="68" viewBox="0 0 68 68" fill="none" xmlns="http://www.w3.org/2000/svg">
<g filter="url(#filter0_dd_94_1298)">
<rect x="9" y="9" width="50" height="50" rx="10" fill="#E3E6EC"/>
</g>
<path d="M34.0001 35C32.8751 35 31.8907 34.7656 30.9532 34.2031C30.0157 33.6875 29.3126 32.9844 28.797 32.0469C28.2345 31.1094 28.0001 30.125 28.0001 29C28.0001 27.9219 28.2345 26.9375 28.797 26C29.3126 25.0625 30.0157 24.3594 30.9532 23.7969C31.8907 23.2812 32.8751 23 34.0001 23C35.0782 23 36.0626 23.2812 37.0001 23.7969C37.9376 24.3594 38.6407 25.0625 39.2032 26C39.7189 26.9375 40.0001 27.9219 40.0001 29C40.0001 30.125 39.7189 31.1094 39.2032 32.0469C38.6407 32.9844 37.9376 33.6875 37.0001 34.2031C36.0626 34.7656 35.0782 35 34.0001 35ZM38.2189 36.5C39.3439 36.5 40.3751 36.7812 41.3595 37.3438C42.297 37.9062 43.0939 38.7031 43.6564 39.6406C44.2189 40.625 44.5001 41.6562 44.5001 42.7812V44.75C44.5001 45.4062 44.2657 45.9219 43.8439 46.3438C43.3751 46.8125 42.8595 47 42.2501 47H25.7501C25.0939 47 24.5782 46.8125 24.1564 46.3438C23.6876 45.9219 23.5001 45.4062 23.5001 44.75V42.7812C23.5001 41.6562 23.7814 40.625 24.3439 39.6406C24.9064 38.7031 25.6564 37.9062 26.6407 37.3438C27.5782 36.7812 28.6564 36.5 29.7814 36.5H30.5782C31.6564 37.0156 32.7814 37.25 34.0001 37.25C35.172 37.25 36.297 37.0156 37.422 36.5H38.2189Z" fill="url(#paint0_linear_94_1298)"/>
<defs>
<filter id="filter0_dd_94_1298" x="0" y="0" width="68" height="68" filterUnits="userSpaceOnUse" color-interpolation-filters="sRGB">
<feFlood flood-opacity="0" result="BackgroundImageFix"/>
<feColorMatrix in="SourceAlpha" type="matrix" values="0 0 0 0 0 0 0 0 0 0 0 0 0 0 0 0 0 0 127 0" result="hardAlpha"/>
<feOffset dx="-4" dy="-4"/>
<feGaussianBlur stdDeviation="2.5"/>
<feColorMatrix type="matrix" values="0 0 0 0 1 0 0 0 0 1 0 0 0 0 1 0 0 0 0.5 0"/>
<feBlend mode="normal" in2="BackgroundImageFix" result="effect1_dropShadow_94_1298"/>
<feColorMatrix in="SourceAlpha" type="matrix" values="0 0 0 0 0 0 0 0 0 0 0 0 0 0 0 0 0 0 127 0" result="hardAlpha"/>
<feOffset dx="4" dy="4"/>
<feGaussianBlur stdDeviation="2.5"/>
<feColorMatrix type="matrix" values="0 0 0 0 0.819608 0 0 0 0 0.85098 0 0 0 0 0.901961 0 0 0 1 0"/>
<feBlend mode="normal" in2="effect1_dropShadow_94_1298" result="effect2_dropShadow_94_1298"/>
<feBlend mode="normal" in="SourceGraphic" in2="effect2_dropShadow_94_1298" result="shape"/>
</filter>
<linearGradient id="paint0_linear_94_1298" x1="26.6998" y1="23" x2="44.6673" y2="23.5402" gradientUnits="userSpaceOnUse">
<stop stop-color="#FF6161"/>
<stop offset="1" stop-color="#FF61DC"/>
</linearGradient>
</defs>
</svg>
