<svg width="15" height="13" viewBox="0 0 15 13" fill="none" xmlns="http://www.w3.org/2000/svg">
<path d="M13.8438 6.75C14.0078 6.75 14.1719 6.83203 14.3086 6.94141C14.418 7.07812 14.5 7.24219 14.5 7.40625V7.84375C14.5 8.03516 14.418 8.19922 14.3086 8.30859C14.1719 8.44531 14.0078 8.5 13.8438 8.5H13.625V9.375C13.625 9.75781 13.543 10.1406 13.3789 10.4688C13.2148 10.7969 13.0234 11.0977 12.75 11.3438V12.2188C12.75 12.4102 12.668 12.5742 12.5586 12.6836C12.4219 12.8203 12.2578 12.875 12.0938 12.875H11.6562C11.4648 12.875 11.3008 12.8203 11.1914 12.6836C11.0547 12.5742 11 12.4102 11 12.2188V12H4V12.2188C4 12.4102 3.91797 12.5742 3.80859 12.6836C3.67188 12.8203 3.50781 12.875 3.34375 12.875H2.90625C2.71484 12.875 2.55078 12.8203 2.44141 12.6836C2.30469 12.5742 2.25 12.4102 2.25 12.2188V11.3438C1.97656 11.0977 1.75781 10.7969 1.59375 10.4688C1.42969 10.1406 1.375 9.75781 1.375 9.375V8.5H1.15625C0.964844 8.5 0.800781 8.44531 0.691406 8.30859C0.554688 8.19922 0.5 8.03516 0.5 7.84375V7.40625C0.5 7.24219 0.554688 7.07812 0.691406 6.94141C0.800781 6.83203 0.964844 6.75 1.15625 6.75H1.375V2.8125C1.375 2.21094 1.56641 1.71875 2.00391 1.28125C2.44141 0.84375 2.96094 0.625 3.5625 0.625C3.91797 0.625 4.24609 0.734375 4.57422 0.898438C4.90234 1.0625 5.14844 1.28125 5.36719 1.55469C5.64062 1.5 5.94141 1.5 6.26953 1.55469C6.59766 1.63672 6.87109 1.77344 7.11719 1.99219C7.17188 1.9375 7.22656 1.91016 7.33594 1.91016C7.41797 1.91016 7.5 1.9375 7.55469 1.99219L7.88281 2.32031C7.9375 2.375 7.96484 2.45703 7.96484 2.53906C7.96484 2.64844 7.9375 2.73047 7.88281 2.78516L5.28516 5.38281C5.20312 5.4375 5.12109 5.46484 5.03906 5.46484C4.92969 5.46484 4.875 5.4375 4.82031 5.38281L4.49219 5.05469C4.4375 5 4.41016 4.94531 4.41016 4.83594C4.41016 4.75391 4.4375 4.67188 4.49219 4.61719C4.19141 4.31641 4.02734 3.96094 4 3.52344C3.94531 3.08594 4.05469 2.70312 4.30078 2.34766C4.13672 2.07422 3.89062 1.9375 3.5625 1.9375C3.31641 1.9375 3.09766 2.04688 2.93359 2.21094C2.76953 2.375 2.6875 2.59375 2.6875 2.8125V6.75H13.8438Z" fill="#DFDEDE"/>
</svg>
