<svg width="13" height="19" viewBox="0 0 13 19" fill="none" xmlns="http://www.w3.org/2000/svg">
<path d="M8.1875 3.625C9.10156 3.625 9.875 2.88672 9.875 1.9375C9.875 1.02344 9.10156 0.25 8.1875 0.25C7.23828 0.25 6.5 1.02344 6.5 1.9375C6.5 2.88672 7.23828 3.625 8.1875 3.625ZM11.4922 8.89844L10.6836 8.47656L10.332 7.42188C9.80469 5.875 8.36328 4.78516 6.74609 4.75C5.48047 4.75 4.77734 5.13672 3.47656 5.66406C2.70312 5.94531 2.07031 6.54297 1.71875 7.28125L1.47266 7.73828C1.19141 8.30078 1.4375 8.96875 1.96484 9.25C2.52734 9.53125 3.19531 9.32031 3.47656 8.75781L3.72266 8.26562C3.82812 8.01953 4.03906 7.84375 4.28516 7.73828L5.23438 7.35156L4.70703 9.49609C4.49609 10.2344 4.70703 11.0078 5.23438 11.5703L7.30859 13.8555C7.58984 14.1367 7.76562 14.4883 7.83594 14.8398L8.50391 17.4062C8.64453 18.0039 9.24219 18.3906 9.83984 18.2148C10.4727 18.0742 10.8242 17.4766 10.6836 16.8789L9.91016 13.75C9.80469 13.3633 9.62891 13.0469 9.38281 12.7656L7.76562 11.0078L8.36328 8.61719L8.57422 9.17969C8.75 9.74219 9.17188 10.1992 9.69922 10.4805L10.5078 10.9023C11.0352 11.1836 11.7031 10.9375 11.9844 10.4102C12.2656 9.84766 12.0547 9.14453 11.4922 8.89844ZM3.44141 13.8203C3.33594 14.1016 3.16016 14.3828 2.94922 14.5938L1.19141 16.3516C0.734375 16.7734 0.734375 17.5117 1.19141 17.9336C1.61328 18.3906 2.35156 18.3906 2.77344 17.9336L4.88281 15.8594C5.09375 15.6484 5.23438 15.3672 5.375 15.0859L5.83203 13.8906C3.89844 11.7812 4.49609 12.4492 4.17969 12.0273L3.44141 13.8203Z" fill="url(#paint0_linear_40_771)"/>
<defs>
<linearGradient id="paint0_linear_40_771" x1="1.2855" y1="-0.999989" x2="14.1233" y2="-0.684935" gradientUnits="userSpaceOnUse">
<stop stop-color="#FF6161"/>
<stop offset="1" stop-color="#FF61DC"/>
</linearGradient>
</defs>
</svg>
