<svg width="19" height="13" viewBox="0 0 19 13" fill="none" xmlns="http://www.w3.org/2000/svg">
<path d="M18.1133 3.98828C18.1953 4.07031 18.25 4.17969 18.25 4.28906C18.25 4.42578 18.1953 4.53516 18.1133 4.61719L17.1836 5.54688C17.0742 5.62891 16.9648 5.68359 16.8555 5.68359C16.7461 5.68359 16.6367 5.65625 16.582 5.54688C15.2695 4.34375 13.7383 3.55078 12.0156 3.11328C10.3203 2.70312 8.65234 2.70312 6.98438 3.11328C5.23438 3.55078 3.73047 4.34375 2.41797 5.54688C2.33594 5.65625 2.22656 5.68359 2.11719 5.68359C2.00781 5.68359 1.89844 5.62891 1.81641 5.54688L0.886719 4.61719C0.777344 4.53516 0.75 4.42578 0.75 4.28906C0.75 4.17969 0.777344 4.07031 0.886719 3.98828C2.47266 2.51172 4.30469 1.52734 6.4375 1.00781C8.46094 0.515625 10.5117 0.515625 12.5625 1.00781C14.668 1.52734 16.5273 2.51172 18.1133 3.98828ZM9.5 9.375C9.99219 9.375 10.4023 9.56641 10.7305 9.89453C11.0586 10.2227 11.25 10.6328 11.25 11.125C11.25 11.6172 11.0586 12.0547 10.7305 12.3828C10.4023 12.7109 9.99219 12.875 9.5 12.875C9.00781 12.875 8.57031 12.7109 8.24219 12.3828C7.91406 12.0547 7.75 11.6172 7.75 11.125C7.75 10.6328 7.91406 10.2227 8.24219 9.89453C8.57031 9.56641 9.00781 9.375 9.5 9.375ZM15.0508 7.07812C15.1328 7.1875 15.1875 7.29688 15.1875 7.40625C15.1875 7.54297 15.1328 7.65234 15.0508 7.73438L14.1211 8.66406C14.0117 8.74609 13.9297 8.77344 13.8203 8.77344C13.7109 8.77344 13.6016 8.74609 13.5195 8.66406C12.7539 8.03516 11.8789 7.59766 10.9219 7.37891C9.96484 7.16016 9.00781 7.16016 8.05078 7.37891C7.09375 7.59766 6.24609 8.03516 5.48047 8.66406C5.37109 8.74609 5.28906 8.77344 5.17969 8.77344C5.07031 8.77344 4.96094 8.74609 4.87891 8.66406L3.94922 7.73438C3.83984 7.65234 3.8125 7.54297 3.8125 7.40625C3.8125 7.29688 3.83984 7.1875 3.94922 7.07812C4.98828 6.17578 6.16406 5.57422 7.50391 5.24609C8.81641 4.91797 10.1562 4.91797 11.4961 5.24609C12.8086 5.57422 14.0117 6.17578 15.0508 7.07812Z" fill="#DFDEDE"/>
</svg>
