<svg width="19" height="17" viewBox="0 0 19 17" fill="none" xmlns="http://www.w3.org/2000/svg">
<path d="M16.7773 1.46484C17.8789 2.40234 18.4648 3.59766 18.5352 5.05078C18.6055 6.50391 18.1367 7.73438 17.1289 8.74219L10.3438 15.7734C10.1094 16.0078 9.83984 16.125 9.53516 16.125C9.23047 16.125 8.96094 16.0078 8.72656 15.7734L1.94141 8.74219C0.933594 7.73438 0.464844 6.50391 0.535156 5.05078C0.605469 3.59766 1.19141 2.40234 2.29297 1.46484C3.25391 0.644531 4.35547 0.292969 5.59766 0.410156C6.86328 0.503906 7.94141 1.00781 8.83203 1.92188L9.53516 2.625L10.2383 1.92188C11.1289 1.00781 12.1953 0.503906 13.4375 0.410156C14.7031 0.292969 15.8164 0.644531 16.7773 1.46484Z" fill="url(#paint0_linear_0_554)"/>
<defs>
<linearGradient id="paint0_linear_0_554" x1="2.1997" y1="8.97782e-06" x2="20.151" y2="0.761898" gradientUnits="userSpaceOnUse">
<stop stop-color="#FF6161"/>
<stop offset="1" stop-color="#FF61DC"/>
</linearGradient>
</defs>
</svg>
